<svg id="Layer_1" data-name="Layer 1" xmlns="http://www.w3.org/2000/svg" viewBox="0 0 96 96"><path d="M41.35,77A37.48,37.48,0,1,1,70.51,63.06,1,1,0,0,1,69,61.8a35.39,35.39,0,1,0-10.23,8.65,1,1,0,1,1,1,1.74A37.55,37.55,0,0,1,41.35,77Z"/><path d="M41.35,54.49c-5.46,0-9.9-3.57-9.9-8a1,1,0,0,1,2,0c0,3.28,3.54,6,7.9,6s7.9-2.68,7.9-6c0-2.76-2.58-4.66-8.13-6-6.51-1.56-9.67-4.16-9.67-7.94,0-4.39,4.44-8,9.9-8s9.9,3.57,9.9,8a1,1,0,0,1-2,0c0-3.28-3.54-6-7.9-6s-7.9,2.68-7.9,6c0,2.72,2.66,4.68,8.13,6,4.15,1,9.67,2.9,9.67,7.94C51.25,50.92,46.81,54.49,41.35,54.49Z"/><path d="M41.35,59.33a1,1,0,0,1-1-1V20.65a1,1,0,0,1,2,0V58.33A1,1,0,0,1,41.35,59.33Z"/><path d="M83.7,94a1,1,0,0,1-.71-.29l-13.5-13.5-3,8a1,1,0,0,1-.93.65h0a1,1,0,0,1-.94-.64L52.39,56.45a1,1,0,0,1,.23-1.07,1,1,0,0,1,1.07-.22L85.4,67.42a1,1,0,0,1,0,1.87l-8,3L89.88,84.69A1,1,0,0,1,90,86l-5.47,7.6a1,1,0,0,1-.73.42ZM69.1,77.4a1,1,0,0,1,.71.3L83.58,91.46l4.28-5.95L74.93,72.57a1,1,0,0,1,.36-1.64l6.94-2.6L55.07,57.84,65.57,85l2.6-6.94a1,1,0,0,1,.72-.63Z"/><path d="M80.4,60.16a1,1,0,0,1-.86-.48,1,1,0,0,1,.34-1.37L90.62,51.8a1,1,0,0,1,1.38.34,1,1,0,0,1-.34,1.37L80.91,60A1,1,0,0,1,80.4,60.16Z"/><path d="M81.3,53.66a1,1,0,0,1-.49-.14,1,1,0,0,1-.37-1.36l5.29-9.23a1,1,0,0,1,1.74,1l-5.3,9.23A1,1,0,0,1,81.3,53.66Z"/><path d="M46.23,91.3a1,1,0,0,1-.82-.44,1,1,0,0,1,.26-1.39L56.05,82.4a1,1,0,0,1,1.13,1.65L46.8,91.13A1.08,1.08,0,0,1,46.23,91.3Z"/><path d="M39.72,83.34a1,1,0,0,1-.1-2l10.6-1a1,1,0,0,1,.19,2l-10.6,1Z"/></svg>