<svg xmlns="http://www.w3.org/2000/svg" xmlns:xlink="http://www.w3.org/1999/xlink" xml:space="preserve" version="1.1" style="shape-rendering:geometricPrecision;text-rendering:geometricPrecision;image-rendering:optimizeQuality;" viewBox="0 0 382 468.75" x="0px" y="0px" fill-rule="evenodd" clip-rule="evenodd"><defs><style type="text/css">
   
    .fil0 {fill:black;fill-rule:nonzero}
   
  </style></defs><g><path class="fil0" d="M171 298c21,0 39,17 39,39 0,21 -18,38 -39,38 -21,0 -39,-17 -39,-38 0,-22 18,-39 39,-39zm0 20c-11,0 -19,8 -19,19 0,10 8,18 19,18 10,0 19,-8 19,-18 0,-11 -9,-19 -19,-19z"/><path class="fil0" d="M292 298c21,0 39,17 39,39 0,21 -18,38 -39,38 -21,0 -39,-17 -39,-38 0,-22 18,-39 39,-39zm0 20c-10,0 -19,8 -19,19 0,10 9,18 19,18 10,0 19,-8 19,-18 0,-11 -9,-19 -19,-19z"/><path class="fil0" d="M11 0l67 15c4,1 6,3 7,7l16 76 273 0c5,0 9,5 8,11l-37 132c-1,4 -4,6 -8,6l-205 0 4 22 198 0c11,0 11,20 0,20l-207 0c-4,0 -8,-3 -9,-7l-51 -249 -60 -13c-12,-3 -7,-22 4,-20zm94 118l22 109 202 0 30 -109 -254 0z"/></g></svg>